<svg width="131" height="12" viewBox="0 0 131 12" fill="none" xmlns="http://www.w3.org/2000/svg">
<path d="M4.5369 8.42081H2.57817V11.9449H0V0.200806H4.78802C7.58383 0.200806 9.2747 1.86657 9.2747 4.26058V4.29406C9.2747 7.01453 7.16529 8.42081 4.5369 8.42081ZM6.66305 4.31081C6.66305 3.15565 5.85947 2.53622 4.57039 2.53622H2.57817V6.12724H4.62061C5.90969 6.12724 6.66305 5.35714 6.66305 4.35266V4.31081Z" fill="#171B35"/>
<path d="M18.7333 11.9365L17.6619 9.29975H12.7064L11.635 11.9365H9.00659L14.029 0.108765H16.4063L21.4287 11.9365H18.7333ZM15.1841 3.22265L13.6272 7.0313H16.7411L15.1841 3.22265Z" fill="#171B35"/>
<path d="M27.2798 7.25728V11.9365H24.7017V7.30751L20.1982 0.200806H23.2117L26.0075 4.9135L28.8535 0.200806H31.7833L27.2798 7.25728Z" fill="#171B35"/>
<path d="M36.1195 12.1123C34.3617 12.1123 33.24 11.2417 32.5034 10.028L33.4577 9.20766C34.1776 10.2958 34.9142 10.8818 36.1363 10.8818C37.4589 10.8818 38.4299 9.92754 38.4299 8.06924V0.200806H39.7692V8.05251C39.7692 10.7479 38.2122 12.1123 36.1195 12.1123Z" fill="#171B35"/>
<path d="M52.4841 6.92252C52.4841 10.3461 50.5253 12.1207 47.5956 12.1207C44.6994 12.1207 42.7239 10.3461 42.7239 7.02297V0.192505H44.0464V6.93926C44.0464 9.47557 45.3858 10.8986 47.6291 10.8986C49.7887 10.8986 51.1615 9.59276 51.1615 7.02297V0.192505H52.4841V6.92252Z" fill="#171B35"/>
<path d="M59.8167 5.43259C62.4283 6.00179 63.6337 6.96442 63.6337 8.77249C63.6337 10.7982 61.9596 12.1124 59.6325 12.1124C57.7742 12.1124 56.2508 11.493 54.8445 10.2374L55.6648 9.26635C56.8869 10.3713 58.0588 10.9238 59.6827 10.9238C61.2564 10.9238 62.2944 10.1034 62.2944 8.91479C62.2944 7.80986 61.7084 7.18206 59.2475 6.67145C56.5521 6.0855 55.3132 5.21495 55.3132 3.26458C55.3132 1.38118 56.9372 0.0418701 59.1638 0.0418701C60.8714 0.0418701 62.0935 0.527367 63.2821 1.48162L62.512 2.50285C61.4238 1.61556 60.3356 1.2305 59.1303 1.2305C57.6068 1.2305 56.6358 2.06757 56.6358 3.14739C56.6358 4.26069 57.2385 4.88012 59.8167 5.43259Z" fill="#171B35"/>
<path d="M70.5145 11.9365H69.1752V1.42292H65.241V0.200806H74.4487V1.42292H70.5145V11.9365Z" fill="#171B35"/>
<path d="M84.9037 11.9365L79.2284 4.46985V11.9365H76.6753V0.200806H79.0526L84.5437 7.43307V0.200806H87.0884V11.9365H84.9037Z" fill="#171B35"/>
<path d="M95.6012 12.1459C91.985 12.1459 89.3901 9.45049 89.3901 6.10222V6.06874C89.3901 2.72884 92.0185 0 95.6347 0C99.2508 0 101.846 2.69536 101.846 6.03526V6.06874C101.846 9.40864 99.2173 12.1459 95.6012 12.1459ZM99.1503 6.06874C99.1503 4.05141 97.6771 2.37727 95.6012 2.37727C93.5252 2.37727 92.0855 4.01792 92.0855 6.03526V6.06874C92.0855 8.08607 93.5587 9.76021 95.6347 9.76021C97.7106 9.76021 99.1503 8.11955 99.1503 6.10222V6.06874Z" fill="#171B35"/>
<path d="M116.352 12.0286H114.109L111.464 4.34433L108.819 12.0286H106.575L102.574 0.200842H105.337L107.764 8.15299L110.392 0.167358H112.602L115.231 8.15299L117.658 0.200842H120.354L116.352 12.0286Z" fill="#171B35"/>
<path d="M127.69 7.42745C127.012 7.42745 126.406 7.27739 125.872 6.97727C125.35 6.67714 124.939 6.26587 124.638 5.74343C124.338 5.20988 124.188 4.60964 124.188 3.9427C124.188 3.26465 124.338 2.66441 124.638 2.14197C124.939 1.60842 125.35 1.19159 125.872 0.891466C126.406 0.591345 127.012 0.441284 127.69 0.441284C128.368 0.441284 128.968 0.591345 129.49 0.891466C130.013 1.19159 130.419 1.60842 130.708 2.14197C131.008 2.66441 131.158 3.26465 131.158 3.9427C131.158 4.60964 131.008 5.20988 130.708 5.74343C130.419 6.26587 130.013 6.67714 129.49 6.97727C128.968 7.27739 128.368 7.42745 127.69 7.42745ZM127.69 6.66047C128.49 6.66047 129.129 6.41037 129.607 5.91017C130.096 5.39885 130.341 4.74303 130.341 3.9427C130.341 3.13126 130.096 2.47544 129.607 1.97524C129.129 1.47504 128.49 1.22493 127.69 1.22493C126.878 1.22493 126.228 1.47504 125.739 1.97524C125.261 2.47544 125.022 3.13126 125.022 3.9427C125.022 4.74303 125.261 5.39885 125.739 5.91017C126.228 6.41037 126.878 6.66047 127.69 6.66047ZM126.256 5.67674V2.1253H127.99C128.368 2.1253 128.668 2.22534 128.89 2.42542C129.124 2.6255 129.24 2.89783 129.24 3.24242C129.24 3.76485 128.99 4.10944 128.49 4.27617L129.39 5.66007L128.257 5.67674L127.473 4.35954H127.256V5.67674H126.256ZM127.239 3.64258H127.856C127.956 3.64258 128.04 3.61479 128.106 3.55921C128.184 3.50364 128.223 3.41471 128.223 3.29244C128.223 3.18128 128.184 3.10347 128.106 3.05901C128.04 3.00343 127.956 2.97565 127.856 2.97565H127.239V3.64258Z" fill="#171B35"/>
</svg>
